<!DOCTYPE svg PUBLIC "-//W3C//DTD SVG 20010904//EN" "http://www.w3.org/TR/2001/REC-SVG-20010904/DTD/svg10.dtd">
<svg version="1.0" xmlns="http://www.w3.org/2000/svg" width="513px" height="249px" viewBox="0 0 5130 2490" preserveAspectRatio="xMidYMid meet">
<g id="layer101" fill="#000000" stroke="none">
 <path d="M4285 2359 c-115 -9 -201 -30 -292 -73 -212 -101 -279 -292 -155 -438 14 -17 -43 -18 -1190 -18 -663 0 -1340 3 -1506 7 l-301 6 -28 44 c-42 67 -92 97 -173 101 -84 5 -131 -10 -182 -56 -103 -93 -115 -236 -27 -336 22 -25 49 -48 60 -51 19 -6 20 -12 14 -168 -3 -89 -8 -181 -11 -204 l-5 -43 -62 0 c-34 0 -73 -6 -86 -13 -21 -10 -85 -104 -230 -338 -62 -98 -68 -75 112 -408 61 -112 78 -130 119 -131 63 0 107 49 95 108 -3 15 -42 96 -87 179 l-81 152 82 130 81 131 97 -1 c53 -1 120 -4 150 -7 l55 -7 62 -115 c35 -63 63 -121 63 -129 1 -8 -42 -83 -94 -168 -76 -123 -95 -161 -95 -192 0 -64 61 -103 122 -78 26 12 51 43 122 158 145 233 156 252 156 271 0 10 -45 103 -100 205 -55 102 -100 190 -100 194 0 4 -12 17 -26 28 -21 17 -41 21 -96 21 l-69 0 6 143 c10 258 11 261 53 288 20 13 50 42 67 64 l30 40 1850 0 1850 0 85 23 c160 44 265 109 328 205 37 55 42 155 12 225 -55 129 -249 233 -460 248 -41 3 -86 6 -100 8 -14 1 -66 -1 -115 -5z m138 -175 c13 -5 11 -12 -9 -42 -14 -20 -23 -43 -22 -51 5 -22 124 -94 145 -87 20 6 83 105 83 130 0 38 143 -48 168 -101 14 -29 14 -34 -2 -58 -9 -14 -35 -39 -58 -55 -46 -34 -150 -70 -155 -55 -2 6 -12 25 -23 43 -28 46 -45 31 -20 -18 21 -41 15 -50 -31 -50 -17 0 -19 8 -19 63 0 91 -11 102 -96 99 -92 -5 -98 -11 -92 -94 l5 -68 -35 0 c-31 0 -34 2 -27 23 24 77 10 95 -20 27 -20 -44 -16 -44 -108 -10 -55 21 -110 60 -133 96 -29 43 10 100 103 148 47 24 85 37 79 28 -9 -15 35 -143 51 -149 9 -3 46 4 84 16 64 20 69 24 69 50 0 16 -6 47 -14 69 -8 22 -12 43 -9 46 8 8 67 8 86 0z m82 -14 c3 -5 1 -10 -4 -10 -6 0 -11 5 -11 10 0 6 2 10 4 10 3 0 8 -4 11 -10z m-215 -20 c0 -5 -2 -10 -4 -10 -3 0 -8 5 -11 10 -3 6 -1 10 4 10 6 0 11 -4 11 -10z m-70 -20 c0 -5 -4 -10 -10 -10 -5 0 -10 5 -10 10 0 6 5 10 10 10 6 0 10 -4 10 -10z m350 0 c0 -5 -5 -10 -11 -10 -5 0 -7 5 -4 10 3 6 8 10 11 10 2 0 4 -4 4 -10z m-53 -17 c-4 -3 -10 -3 -14 0 -3 4 0 7 7 7 7 0 10 -3 7 -7z m-57 -13 c0 -5 -4 -10 -10 -10 -5 0 -10 5 -10 10 0 6 5 10 10 10 6 0 10 -4 10 -10z m-140 -20 c0 -5 -4 -10 -10 -10 -5 0 -10 5 -10 10 0 6 5 10 10 10 6 0 10 -4 10 -10z m-80 -20 c0 -5 -5 -10 -11 -10 -5 0 -7 5 -4 10 3 6 8 10 11 10 2 0 4 -4 4 -10z m290 0 c0 -5 -4 -10 -10 -10 -5 0 -10 5 -10 10 0 6 5 10 10 10 6 0 10 -4 10 -10z m-180 -120 c0 -5 -2 -10 -4 -10 -3 0 -8 5 -11 10 -3 6 -1 10 4 10 6 0 11 -4 11 -10z m40 -30 c0 -5 -5 -10 -11 -10 -5 0 -7 5 -4 10 3 6 8 10 11 10 2 0 4 -4 4 -10z m50 -40 c0 -5 -4 -10 -10 -10 -5 0 -10 5 -10 10 0 6 5 10 10 10 6 0 10 -4 10 -10z"/>
 <path d="M4545 1962 c-11 -11 -4 -20 23 -26 15 -4 35 -9 45 -12 10 -3 17 0 17 9 0 15 -74 40 -85 29z"/>
 <path d="M4168 1947 c-28 -11 -35 -22 -20 -30 10 -7 82 23 82 34 0 12 -28 10 -62 -4z"/>
 <path d="M940 1313 c0 -336 15 -396 124 -508 35 -36 79 -67 123 -88 l68 -32 262 -3 c253 -3 262 -3 282 17 21 21 21 30 21 441 l0 420 -80 0 -80 0 0 -110 0 -110 -275 0 -275 0 0 110 0 110 -85 0 -85 0 0 -247z m720 -304 l0 -171 -172 4 c-166 3 -175 4 -230 31 -98 48 -148 134 -148 254 l0 53 275 0 275 0 0 -171z"/>
 <path d="M2000 1203 c0 -401 1 -407 73 -470 58 -51 86 -55 362 -51 234 3 253 4 291 25 53 28 99 76 127 132 19 41 22 61 22 176 0 114 -3 135 -21 170 -29 54 -69 92 -129 124 -49 26 -54 26 -277 29 l-228 3 0 -80 0 -79 198 -4 c231 -4 251 -10 284 -85 37 -84 6 -200 -63 -235 -29 -15 -63 -18 -235 -18 -192 0 -202 1 -220 21 -18 20 -19 43 -22 360 l-3 339 -79 0 -80 0 0 -357z"/>
 <path d="M3002 1198 c3 -354 4 -364 25 -405 27 -50 73 -87 128 -103 27 -8 119 -10 290 -8 235 3 252 4 291 25 51 27 99 81 127 142 17 38 21 66 21 161 1 100 -2 122 -23 168 -26 57 -68 99 -134 134 -39 22 -56 23 -269 26 l-228 3 0 -80 0 -79 198 -4 c218 -3 247 -11 277 -68 22 -42 20 -156 -3 -200 -34 -63 -61 -70 -287 -70 -150 1 -204 4 -217 14 -16 12 -18 44 -20 357 l-3 344 -88 3 -89 3 4 -363z"/>
 <path d="M3990 1475 l0 -85 314 0 c175 0 326 -4 340 -10 65 -24 65 -139 -1 -169 -15 -7 -102 -11 -237 -11 -247 0 -285 -8 -350 -74 -125 -127 -89 -349 69 -422 49 -23 56 -24 353 -24 l302 0 0 80 0 79 -291 3 -291 3 -24 28 c-34 40 -32 90 5 128 l29 29 216 0 c249 0 294 10 365 81 104 104 92 306 -24 395 -66 50 -101 54 -452 54 l-323 0 0 -85z"/>
 </g>
<g id="layer102" fill="#0090ff" stroke="none">
 <path d="M940 1313 c0 -336 15 -396 124 -508 35 -36 79 -67 123 -88 l68 -32 262 -3 c253 -3 262 -3 282 17 21 21 21 30 21 441 l0 420 -80 0 -80 0 0 -110 0 -110 -275 0 -275 0 0 110 0 110 -85 0 -85 0 0 -247z m720 -304 l0 -171 -172 4 c-166 3 -175 4 -230 31 -98 48 -148 134 -148 254 l0 53 275 0 275 0 0 -171z"/>
 <path d="M2000 1203 c0 -401 1 -407 73 -470 58 -51 86 -55 362 -51 234 3 253 4 291 25 53 28 99 76 127 132 19 41 22 61 22 176 0 114 -3 135 -21 170 -29 54 -69 92 -129 124 -49 26 -54 26 -277 29 l-228 3 0 -80 0 -79 198 -4 c231 -4 251 -10 284 -85 37 -84 6 -200 -63 -235 -29 -15 -63 -18 -235 -18 -192 0 -202 1 -220 21 -18 20 -19 43 -22 360 l-3 339 -79 0 -80 0 0 -357z"/>
 <path d="M3002 1198 c3 -354 4 -364 25 -405 27 -50 73 -87 128 -103 27 -8 119 -10 290 -8 235 3 252 4 291 25 51 27 99 81 127 142 17 38 21 66 21 161 1 100 -2 122 -23 168 -26 57 -68 99 -134 134 -39 22 -56 23 -269 26 l-228 3 0 -80 0 -79 198 -4 c218 -3 247 -11 277 -68 22 -42 20 -156 -3 -200 -34 -63 -61 -70 -287 -70 -150 1 -204 4 -217 14 -16 12 -18 44 -20 357 l-3 344 -88 3 -89 3 4 -363z"/>
 <path d="M3990 1475 l0 -85 314 0 c175 0 326 -4 340 -10 65 -24 65 -139 -1 -169 -15 -7 -102 -11 -237 -11 -247 0 -285 -8 -350 -74 -125 -127 -89 -349 69 -422 49 -23 56 -24 353 -24 l302 0 0 80 0 79 -291 3 -291 3 -24 28 c-34 40 -32 90 5 128 l29 29 216 0 c249 0 294 10 365 81 104 104 92 306 -24 395 -66 50 -101 54 -452 54 l-323 0 0 -85z"/>
 </g>

</svg>