<?xml version="1.0" encoding="UTF-8"?><svg xmlns="http://www.w3.org/2000/svg" xmlns:xlink="http://www.w3.org/1999/xlink" fill-opacity="1" color-rendering="auto" color-interpolation="auto" text-rendering="auto" stroke="black" stroke-linecap="square" width="191" stroke-miterlimit="10" shape-rendering="auto" stroke-opacity="1" fill="black" stroke-dasharray="none" font-weight="normal" stroke-width="1" height="455" font-family="'Dialog'" font-style="normal" stroke-linejoin="miter" font-size="12px" stroke-dashoffset="0" image-rendering="auto">
  <!--Generated by ySVG 2.5-->
  <defs id="genericDefs"/>
  <g>
    <defs id="defs1">
      <linearGradient x1="-552.9224" gradientUnits="userSpaceOnUse" x2="-429.3016" y1="-290" y2="-250" id="linearGradient1" spreadMethod="reflect">
        <stop stop-opacity="1" stop-color="rgb(232,238,247)" offset="0%"/>
        <stop stop-opacity="1" stop-color="rgb(183,201,227)" offset="100%"/>
      </linearGradient>
      <linearGradient x1="-552.9224" gradientUnits="userSpaceOnUse" x2="-429.3016" y1="-196.7324" y2="-156.7324" id="linearGradient2" spreadMethod="reflect">
        <stop stop-opacity="1" stop-color="rgb(232,238,247)" offset="0%"/>
        <stop stop-opacity="1" stop-color="rgb(183,201,227)" offset="100%"/>
      </linearGradient>
      <linearGradient x1="-557.224" gradientUnits="userSpaceOnUse" x2="-425" y1="-108.4648" y2="-42.3528" id="linearGradient3" spreadMethod="reflect">
        <stop stop-opacity="1" stop-color="rgb(232,238,247)" offset="0%"/>
        <stop stop-opacity="1" stop-color="rgb(183,201,227)" offset="100%"/>
      </linearGradient>
      <linearGradient x1="-557.224" gradientUnits="userSpaceOnUse" x2="-425" y1="5.9147" y2="45.9147" id="linearGradient4" spreadMethod="reflect">
        <stop stop-opacity="1" stop-color="rgb(232,238,247)" offset="0%"/>
        <stop stop-opacity="1" stop-color="rgb(183,201,227)" offset="100%"/>
      </linearGradient>
      <linearGradient x1="-557.224" gradientUnits="userSpaceOnUse" x2="-425" y1="94.1823" y2="134.1823" id="linearGradient5" spreadMethod="reflect">
        <stop stop-opacity="1" stop-color="rgb(232,238,247)" offset="0%"/>
        <stop stop-opacity="1" stop-color="rgb(183,201,227)" offset="100%"/>
      </linearGradient>
      <clipPath clipPathUnits="userSpaceOnUse" id="clipPath1">
        <path d="M0 0 L191 0 L191 455 L0 455 L0 0 Z"/>
      </clipPath>
      <clipPath clipPathUnits="userSpaceOnUse" id="clipPath2">
        <path d="M-573 -305 L-382 -305 L-382 150 L-573 150 L-573 -305 Z"/>
      </clipPath>
    </defs>
    <g fill="gray" text-rendering="geometricPrecision" shape-rendering="geometricPrecision" stroke="gray">
      <line y2="-54" fill="none" x1="-57" clip-path="url(#clipPath1)" x2="-57" y1="-56"/>
    </g>
    <g fill="gray" text-rendering="geometricPrecision" shape-rendering="geometricPrecision" stroke="gray">
      <line y2="-55" fill="none" x1="-58" clip-path="url(#clipPath1)" x2="-56" y1="-55"/>
      <line y2="-24" fill="none" x1="-57" clip-path="url(#clipPath1)" x2="-57" y1="-26"/>
      <line y2="-25" fill="none" x1="-58" clip-path="url(#clipPath1)" x2="-56" y1="-25"/>
      <line y2="6" fill="none" x1="-57" clip-path="url(#clipPath1)" x2="-57" y1="4"/>
      <line y2="5" fill="none" x1="-58" clip-path="url(#clipPath1)" x2="-56" y1="5"/>
      <line y2="36" fill="none" x1="-57" clip-path="url(#clipPath1)" x2="-57" y1="34"/>
      <line y2="35" fill="none" x1="-58" clip-path="url(#clipPath1)" x2="-56" y1="35"/>
      <line y2="66" fill="none" x1="-57" clip-path="url(#clipPath1)" x2="-57" y1="64"/>
      <line y2="65" fill="none" x1="-58" clip-path="url(#clipPath1)" x2="-56" y1="65"/>
      <line y2="96" fill="none" x1="-57" clip-path="url(#clipPath1)" x2="-57" y1="94"/>
      <line y2="95" fill="none" x1="-58" clip-path="url(#clipPath1)" x2="-56" y1="95"/>
      <line y2="126" fill="none" x1="-57" clip-path="url(#clipPath1)" x2="-57" y1="124"/>
      <line y2="125" fill="none" x1="-58" clip-path="url(#clipPath1)" x2="-56" y1="125"/>
      <line y2="156" fill="none" x1="-57" clip-path="url(#clipPath1)" x2="-57" y1="154"/>
      <line y2="155" fill="none" x1="-58" clip-path="url(#clipPath1)" x2="-56" y1="155"/>
      <line y2="186" fill="none" x1="-57" clip-path="url(#clipPath1)" x2="-57" y1="184"/>
      <line y2="185" fill="none" x1="-58" clip-path="url(#clipPath1)" x2="-56" y1="185"/>
      <line y2="216" fill="none" x1="-57" clip-path="url(#clipPath1)" x2="-57" y1="214"/>
      <line y2="215" fill="none" x1="-58" clip-path="url(#clipPath1)" x2="-56" y1="215"/>
      <line y2="246" fill="none" x1="-57" clip-path="url(#clipPath1)" x2="-57" y1="244"/>
      <line y2="245" fill="none" x1="-58" clip-path="url(#clipPath1)" x2="-56" y1="245"/>
      <line y2="276" fill="none" x1="-57" clip-path="url(#clipPath1)" x2="-57" y1="274"/>
      <line y2="275" fill="none" x1="-58" clip-path="url(#clipPath1)" x2="-56" y1="275"/>
      <line y2="306" fill="none" x1="-57" clip-path="url(#clipPath1)" x2="-57" y1="304"/>
      <line y2="305" fill="none" x1="-58" clip-path="url(#clipPath1)" x2="-56" y1="305"/>
      <line y2="336" fill="none" x1="-57" clip-path="url(#clipPath1)" x2="-57" y1="334"/>
      <line y2="335" fill="none" x1="-58" clip-path="url(#clipPath1)" x2="-56" y1="335"/>
      <line y2="366" fill="none" x1="-57" clip-path="url(#clipPath1)" x2="-57" y1="364"/>
      <line y2="365" fill="none" x1="-58" clip-path="url(#clipPath1)" x2="-56" y1="365"/>
      <line y2="396" fill="none" x1="-57" clip-path="url(#clipPath1)" x2="-57" y1="394"/>
      <line y2="395" fill="none" x1="-58" clip-path="url(#clipPath1)" x2="-56" y1="395"/>
      <line y2="426" fill="none" x1="-57" clip-path="url(#clipPath1)" x2="-57" y1="424"/>
      <line y2="425" fill="none" x1="-58" clip-path="url(#clipPath1)" x2="-56" y1="425"/>
      <line y2="456" fill="none" x1="-57" clip-path="url(#clipPath1)" x2="-57" y1="454"/>
      <line y2="455" fill="none" x1="-58" clip-path="url(#clipPath1)" x2="-56" y1="455"/>
      <line y2="486" fill="none" x1="-57" clip-path="url(#clipPath1)" x2="-57" y1="484"/>
      <line y2="485" fill="none" x1="-58" clip-path="url(#clipPath1)" x2="-56" y1="485"/>
      <line y2="-54" fill="none" x1="-27" clip-path="url(#clipPath1)" x2="-27" y1="-56"/>
      <line y2="-55" fill="none" x1="-28" clip-path="url(#clipPath1)" x2="-26" y1="-55"/>
      <line y2="-24" fill="none" x1="-27" clip-path="url(#clipPath1)" x2="-27" y1="-26"/>
      <line y2="-25" fill="none" x1="-28" clip-path="url(#clipPath1)" x2="-26" y1="-25"/>
      <line y2="6" fill="none" x1="-27" clip-path="url(#clipPath1)" x2="-27" y1="4"/>
      <line y2="5" fill="none" x1="-28" clip-path="url(#clipPath1)" x2="-26" y1="5"/>
      <line y2="36" fill="none" x1="-27" clip-path="url(#clipPath1)" x2="-27" y1="34"/>
      <line y2="35" fill="none" x1="-28" clip-path="url(#clipPath1)" x2="-26" y1="35"/>
      <line y2="66" fill="none" x1="-27" clip-path="url(#clipPath1)" x2="-27" y1="64"/>
      <line y2="65" fill="none" x1="-28" clip-path="url(#clipPath1)" x2="-26" y1="65"/>
      <line y2="96" fill="none" x1="-27" clip-path="url(#clipPath1)" x2="-27" y1="94"/>
      <line y2="95" fill="none" x1="-28" clip-path="url(#clipPath1)" x2="-26" y1="95"/>
      <line y2="126" fill="none" x1="-27" clip-path="url(#clipPath1)" x2="-27" y1="124"/>
      <line y2="125" fill="none" x1="-28" clip-path="url(#clipPath1)" x2="-26" y1="125"/>
      <line y2="156" fill="none" x1="-27" clip-path="url(#clipPath1)" x2="-27" y1="154"/>
      <line y2="155" fill="none" x1="-28" clip-path="url(#clipPath1)" x2="-26" y1="155"/>
      <line y2="186" fill="none" x1="-27" clip-path="url(#clipPath1)" x2="-27" y1="184"/>
      <line y2="185" fill="none" x1="-28" clip-path="url(#clipPath1)" x2="-26" y1="185"/>
      <line y2="216" fill="none" x1="-27" clip-path="url(#clipPath1)" x2="-27" y1="214"/>
      <line y2="215" fill="none" x1="-28" clip-path="url(#clipPath1)" x2="-26" y1="215"/>
      <line y2="246" fill="none" x1="-27" clip-path="url(#clipPath1)" x2="-27" y1="244"/>
      <line y2="245" fill="none" x1="-28" clip-path="url(#clipPath1)" x2="-26" y1="245"/>
      <line y2="276" fill="none" x1="-27" clip-path="url(#clipPath1)" x2="-27" y1="274"/>
      <line y2="275" fill="none" x1="-28" clip-path="url(#clipPath1)" x2="-26" y1="275"/>
      <line y2="306" fill="none" x1="-27" clip-path="url(#clipPath1)" x2="-27" y1="304"/>
      <line y2="305" fill="none" x1="-28" clip-path="url(#clipPath1)" x2="-26" y1="305"/>
      <line y2="336" fill="none" x1="-27" clip-path="url(#clipPath1)" x2="-27" y1="334"/>
      <line y2="335" fill="none" x1="-28" clip-path="url(#clipPath1)" x2="-26" y1="335"/>
      <line y2="366" fill="none" x1="-27" clip-path="url(#clipPath1)" x2="-27" y1="364"/>
      <line y2="365" fill="none" x1="-28" clip-path="url(#clipPath1)" x2="-26" y1="365"/>
      <line y2="396" fill="none" x1="-27" clip-path="url(#clipPath1)" x2="-27" y1="394"/>
      <line y2="395" fill="none" x1="-28" clip-path="url(#clipPath1)" x2="-26" y1="395"/>
      <line y2="426" fill="none" x1="-27" clip-path="url(#clipPath1)" x2="-27" y1="424"/>
      <line y2="425" fill="none" x1="-28" clip-path="url(#clipPath1)" x2="-26" y1="425"/>
      <line y2="456" fill="none" x1="-27" clip-path="url(#clipPath1)" x2="-27" y1="454"/>
      <line y2="455" fill="none" x1="-28" clip-path="url(#clipPath1)" x2="-26" y1="455"/>
      <line y2="486" fill="none" x1="-27" clip-path="url(#clipPath1)" x2="-27" y1="484"/>
      <line y2="485" fill="none" x1="-28" clip-path="url(#clipPath1)" x2="-26" y1="485"/>
      <line y2="-54" fill="none" x1="3" clip-path="url(#clipPath1)" x2="3" y1="-56"/>
      <line y2="-55" fill="none" x1="2" clip-path="url(#clipPath1)" x2="4" y1="-55"/>
      <line y2="-24" fill="none" x1="3" clip-path="url(#clipPath1)" x2="3" y1="-26"/>
      <line y2="-25" fill="none" x1="2" clip-path="url(#clipPath1)" x2="4" y1="-25"/>
      <line y2="6" fill="none" x1="3" clip-path="url(#clipPath1)" x2="3" y1="4"/>
      <line y2="5" fill="none" x1="2" clip-path="url(#clipPath1)" x2="4" y1="5"/>
      <line y2="36" fill="none" x1="3" clip-path="url(#clipPath1)" x2="3" y1="34"/>
      <line y2="35" fill="none" x1="2" clip-path="url(#clipPath1)" x2="4" y1="35"/>
      <line y2="66" fill="none" x1="3" clip-path="url(#clipPath1)" x2="3" y1="64"/>
      <line y2="65" fill="none" x1="2" clip-path="url(#clipPath1)" x2="4" y1="65"/>
      <line y2="96" fill="none" x1="3" clip-path="url(#clipPath1)" x2="3" y1="94"/>
      <line y2="95" fill="none" x1="2" clip-path="url(#clipPath1)" x2="4" y1="95"/>
      <line y2="126" fill="none" x1="3" clip-path="url(#clipPath1)" x2="3" y1="124"/>
      <line y2="125" fill="none" x1="2" clip-path="url(#clipPath1)" x2="4" y1="125"/>
      <line y2="156" fill="none" x1="3" clip-path="url(#clipPath1)" x2="3" y1="154"/>
      <line y2="155" fill="none" x1="2" clip-path="url(#clipPath1)" x2="4" y1="155"/>
      <line y2="186" fill="none" x1="3" clip-path="url(#clipPath1)" x2="3" y1="184"/>
      <line y2="185" fill="none" x1="2" clip-path="url(#clipPath1)" x2="4" y1="185"/>
      <line y2="216" fill="none" x1="3" clip-path="url(#clipPath1)" x2="3" y1="214"/>
      <line y2="215" fill="none" x1="2" clip-path="url(#clipPath1)" x2="4" y1="215"/>
      <line y2="246" fill="none" x1="3" clip-path="url(#clipPath1)" x2="3" y1="244"/>
      <line y2="245" fill="none" x1="2" clip-path="url(#clipPath1)" x2="4" y1="245"/>
      <line y2="276" fill="none" x1="3" clip-path="url(#clipPath1)" x2="3" y1="274"/>
      <line y2="275" fill="none" x1="2" clip-path="url(#clipPath1)" x2="4" y1="275"/>
      <line y2="306" fill="none" x1="3" clip-path="url(#clipPath1)" x2="3" y1="304"/>
      <line y2="305" fill="none" x1="2" clip-path="url(#clipPath1)" x2="4" y1="305"/>
      <line y2="336" fill="none" x1="3" clip-path="url(#clipPath1)" x2="3" y1="334"/>
      <line y2="335" fill="none" x1="2" clip-path="url(#clipPath1)" x2="4" y1="335"/>
      <line y2="366" fill="none" x1="3" clip-path="url(#clipPath1)" x2="3" y1="364"/>
      <line y2="365" fill="none" x1="2" clip-path="url(#clipPath1)" x2="4" y1="365"/>
      <line y2="396" fill="none" x1="3" clip-path="url(#clipPath1)" x2="3" y1="394"/>
      <line y2="395" fill="none" x1="2" clip-path="url(#clipPath1)" x2="4" y1="395"/>
      <line y2="426" fill="none" x1="3" clip-path="url(#clipPath1)" x2="3" y1="424"/>
      <line y2="425" fill="none" x1="2" clip-path="url(#clipPath1)" x2="4" y1="425"/>
      <line y2="456" fill="none" x1="3" clip-path="url(#clipPath1)" x2="3" y1="454"/>
      <line y2="455" fill="none" x1="2" clip-path="url(#clipPath1)" x2="4" y1="455"/>
      <line y2="486" fill="none" x1="3" clip-path="url(#clipPath1)" x2="3" y1="484"/>
      <line y2="485" fill="none" x1="2" clip-path="url(#clipPath1)" x2="4" y1="485"/>
      <line y2="-54" fill="none" x1="33" clip-path="url(#clipPath1)" x2="33" y1="-56"/>
      <line y2="-55" fill="none" x1="32" clip-path="url(#clipPath1)" x2="34" y1="-55"/>
      <line y2="-24" fill="none" x1="33" clip-path="url(#clipPath1)" x2="33" y1="-26"/>
      <line y2="-25" fill="none" x1="32" clip-path="url(#clipPath1)" x2="34" y1="-25"/>
      <line y2="6" fill="none" x1="33" clip-path="url(#clipPath1)" x2="33" y1="4"/>
      <line y2="5" fill="none" x1="32" clip-path="url(#clipPath1)" x2="34" y1="5"/>
      <line y2="36" fill="none" x1="33" clip-path="url(#clipPath1)" x2="33" y1="34"/>
      <line y2="35" fill="none" x1="32" clip-path="url(#clipPath1)" x2="34" y1="35"/>
      <line y2="66" fill="none" x1="33" clip-path="url(#clipPath1)" x2="33" y1="64"/>
      <line y2="65" fill="none" x1="32" clip-path="url(#clipPath1)" x2="34" y1="65"/>
      <line y2="96" fill="none" x1="33" clip-path="url(#clipPath1)" x2="33" y1="94"/>
      <line y2="95" fill="none" x1="32" clip-path="url(#clipPath1)" x2="34" y1="95"/>
      <line y2="126" fill="none" x1="33" clip-path="url(#clipPath1)" x2="33" y1="124"/>
      <line y2="125" fill="none" x1="32" clip-path="url(#clipPath1)" x2="34" y1="125"/>
      <line y2="156" fill="none" x1="33" clip-path="url(#clipPath1)" x2="33" y1="154"/>
      <line y2="155" fill="none" x1="32" clip-path="url(#clipPath1)" x2="34" y1="155"/>
      <line y2="186" fill="none" x1="33" clip-path="url(#clipPath1)" x2="33" y1="184"/>
      <line y2="185" fill="none" x1="32" clip-path="url(#clipPath1)" x2="34" y1="185"/>
      <line y2="216" fill="none" x1="33" clip-path="url(#clipPath1)" x2="33" y1="214"/>
      <line y2="215" fill="none" x1="32" clip-path="url(#clipPath1)" x2="34" y1="215"/>
      <line y2="246" fill="none" x1="33" clip-path="url(#clipPath1)" x2="33" y1="244"/>
      <line y2="245" fill="none" x1="32" clip-path="url(#clipPath1)" x2="34" y1="245"/>
      <line y2="276" fill="none" x1="33" clip-path="url(#clipPath1)" x2="33" y1="274"/>
      <line y2="275" fill="none" x1="32" clip-path="url(#clipPath1)" x2="34" y1="275"/>
      <line y2="306" fill="none" x1="33" clip-path="url(#clipPath1)" x2="33" y1="304"/>
      <line y2="305" fill="none" x1="32" clip-path="url(#clipPath1)" x2="34" y1="305"/>
      <line y2="336" fill="none" x1="33" clip-path="url(#clipPath1)" x2="33" y1="334"/>
      <line y2="335" fill="none" x1="32" clip-path="url(#clipPath1)" x2="34" y1="335"/>
      <line y2="366" fill="none" x1="33" clip-path="url(#clipPath1)" x2="33" y1="364"/>
      <line y2="365" fill="none" x1="32" clip-path="url(#clipPath1)" x2="34" y1="365"/>
      <line y2="396" fill="none" x1="33" clip-path="url(#clipPath1)" x2="33" y1="394"/>
      <line y2="395" fill="none" x1="32" clip-path="url(#clipPath1)" x2="34" y1="395"/>
      <line y2="426" fill="none" x1="33" clip-path="url(#clipPath1)" x2="33" y1="424"/>
      <line y2="425" fill="none" x1="32" clip-path="url(#clipPath1)" x2="34" y1="425"/>
      <line y2="456" fill="none" x1="33" clip-path="url(#clipPath1)" x2="33" y1="454"/>
      <line y2="455" fill="none" x1="32" clip-path="url(#clipPath1)" x2="34" y1="455"/>
      <line y2="486" fill="none" x1="33" clip-path="url(#clipPath1)" x2="33" y1="484"/>
      <line y2="485" fill="none" x1="32" clip-path="url(#clipPath1)" x2="34" y1="485"/>
      <line y2="-54" fill="none" x1="63" clip-path="url(#clipPath1)" x2="63" y1="-56"/>
      <line y2="-55" fill="none" x1="62" clip-path="url(#clipPath1)" x2="64" y1="-55"/>
      <line y2="-24" fill="none" x1="63" clip-path="url(#clipPath1)" x2="63" y1="-26"/>
      <line y2="-25" fill="none" x1="62" clip-path="url(#clipPath1)" x2="64" y1="-25"/>
      <line y2="6" fill="none" x1="63" clip-path="url(#clipPath1)" x2="63" y1="4"/>
      <line y2="5" fill="none" x1="62" clip-path="url(#clipPath1)" x2="64" y1="5"/>
      <line y2="36" fill="none" x1="63" clip-path="url(#clipPath1)" x2="63" y1="34"/>
      <line y2="35" fill="none" x1="62" clip-path="url(#clipPath1)" x2="64" y1="35"/>
      <line y2="66" fill="none" x1="63" clip-path="url(#clipPath1)" x2="63" y1="64"/>
      <line y2="65" fill="none" x1="62" clip-path="url(#clipPath1)" x2="64" y1="65"/>
      <line y2="96" fill="none" x1="63" clip-path="url(#clipPath1)" x2="63" y1="94"/>
      <line y2="95" fill="none" x1="62" clip-path="url(#clipPath1)" x2="64" y1="95"/>
      <line y2="126" fill="none" x1="63" clip-path="url(#clipPath1)" x2="63" y1="124"/>
      <line y2="125" fill="none" x1="62" clip-path="url(#clipPath1)" x2="64" y1="125"/>
      <line y2="156" fill="none" x1="63" clip-path="url(#clipPath1)" x2="63" y1="154"/>
      <line y2="155" fill="none" x1="62" clip-path="url(#clipPath1)" x2="64" y1="155"/>
      <line y2="186" fill="none" x1="63" clip-path="url(#clipPath1)" x2="63" y1="184"/>
      <line y2="185" fill="none" x1="62" clip-path="url(#clipPath1)" x2="64" y1="185"/>
      <line y2="216" fill="none" x1="63" clip-path="url(#clipPath1)" x2="63" y1="214"/>
      <line y2="215" fill="none" x1="62" clip-path="url(#clipPath1)" x2="64" y1="215"/>
      <line y2="246" fill="none" x1="63" clip-path="url(#clipPath1)" x2="63" y1="244"/>
      <line y2="245" fill="none" x1="62" clip-path="url(#clipPath1)" x2="64" y1="245"/>
      <line y2="276" fill="none" x1="63" clip-path="url(#clipPath1)" x2="63" y1="274"/>
      <line y2="275" fill="none" x1="62" clip-path="url(#clipPath1)" x2="64" y1="275"/>
      <line y2="306" fill="none" x1="63" clip-path="url(#clipPath1)" x2="63" y1="304"/>
      <line y2="305" fill="none" x1="62" clip-path="url(#clipPath1)" x2="64" y1="305"/>
      <line y2="336" fill="none" x1="63" clip-path="url(#clipPath1)" x2="63" y1="334"/>
      <line y2="335" fill="none" x1="62" clip-path="url(#clipPath1)" x2="64" y1="335"/>
      <line y2="366" fill="none" x1="63" clip-path="url(#clipPath1)" x2="63" y1="364"/>
      <line y2="365" fill="none" x1="62" clip-path="url(#clipPath1)" x2="64" y1="365"/>
      <line y2="396" fill="none" x1="63" clip-path="url(#clipPath1)" x2="63" y1="394"/>
      <line y2="395" fill="none" x1="62" clip-path="url(#clipPath1)" x2="64" y1="395"/>
      <line y2="426" fill="none" x1="63" clip-path="url(#clipPath1)" x2="63" y1="424"/>
      <line y2="425" fill="none" x1="62" clip-path="url(#clipPath1)" x2="64" y1="425"/>
      <line y2="456" fill="none" x1="63" clip-path="url(#clipPath1)" x2="63" y1="454"/>
      <line y2="455" fill="none" x1="62" clip-path="url(#clipPath1)" x2="64" y1="455"/>
      <line y2="486" fill="none" x1="63" clip-path="url(#clipPath1)" x2="63" y1="484"/>
      <line y2="485" fill="none" x1="62" clip-path="url(#clipPath1)" x2="64" y1="485"/>
      <line y2="-54" fill="none" x1="93" clip-path="url(#clipPath1)" x2="93" y1="-56"/>
      <line y2="-55" fill="none" x1="92" clip-path="url(#clipPath1)" x2="94" y1="-55"/>
      <line y2="-24" fill="none" x1="93" clip-path="url(#clipPath1)" x2="93" y1="-26"/>
      <line y2="-25" fill="none" x1="92" clip-path="url(#clipPath1)" x2="94" y1="-25"/>
      <line y2="6" fill="none" x1="93" clip-path="url(#clipPath1)" x2="93" y1="4"/>
      <line y2="5" fill="none" x1="92" clip-path="url(#clipPath1)" x2="94" y1="5"/>
      <line y2="36" fill="none" x1="93" clip-path="url(#clipPath1)" x2="93" y1="34"/>
      <line y2="35" fill="none" x1="92" clip-path="url(#clipPath1)" x2="94" y1="35"/>
      <line y2="66" fill="none" x1="93" clip-path="url(#clipPath1)" x2="93" y1="64"/>
      <line y2="65" fill="none" x1="92" clip-path="url(#clipPath1)" x2="94" y1="65"/>
      <line y2="96" fill="none" x1="93" clip-path="url(#clipPath1)" x2="93" y1="94"/>
      <line y2="95" fill="none" x1="92" clip-path="url(#clipPath1)" x2="94" y1="95"/>
      <line y2="126" fill="none" x1="93" clip-path="url(#clipPath1)" x2="93" y1="124"/>
      <line y2="125" fill="none" x1="92" clip-path="url(#clipPath1)" x2="94" y1="125"/>
      <line y2="156" fill="none" x1="93" clip-path="url(#clipPath1)" x2="93" y1="154"/>
      <line y2="155" fill="none" x1="92" clip-path="url(#clipPath1)" x2="94" y1="155"/>
      <line y2="186" fill="none" x1="93" clip-path="url(#clipPath1)" x2="93" y1="184"/>
      <line y2="185" fill="none" x1="92" clip-path="url(#clipPath1)" x2="94" y1="185"/>
      <line y2="216" fill="none" x1="93" clip-path="url(#clipPath1)" x2="93" y1="214"/>
      <line y2="215" fill="none" x1="92" clip-path="url(#clipPath1)" x2="94" y1="215"/>
      <line y2="246" fill="none" x1="93" clip-path="url(#clipPath1)" x2="93" y1="244"/>
      <line y2="245" fill="none" x1="92" clip-path="url(#clipPath1)" x2="94" y1="245"/>
      <line y2="276" fill="none" x1="93" clip-path="url(#clipPath1)" x2="93" y1="274"/>
      <line y2="275" fill="none" x1="92" clip-path="url(#clipPath1)" x2="94" y1="275"/>
      <line y2="306" fill="none" x1="93" clip-path="url(#clipPath1)" x2="93" y1="304"/>
      <line y2="305" fill="none" x1="92" clip-path="url(#clipPath1)" x2="94" y1="305"/>
      <line y2="336" fill="none" x1="93" clip-path="url(#clipPath1)" x2="93" y1="334"/>
      <line y2="335" fill="none" x1="92" clip-path="url(#clipPath1)" x2="94" y1="335"/>
      <line y2="366" fill="none" x1="93" clip-path="url(#clipPath1)" x2="93" y1="364"/>
      <line y2="365" fill="none" x1="92" clip-path="url(#clipPath1)" x2="94" y1="365"/>
      <line y2="396" fill="none" x1="93" clip-path="url(#clipPath1)" x2="93" y1="394"/>
      <line y2="395" fill="none" x1="92" clip-path="url(#clipPath1)" x2="94" y1="395"/>
      <line y2="426" fill="none" x1="93" clip-path="url(#clipPath1)" x2="93" y1="424"/>
      <line y2="425" fill="none" x1="92" clip-path="url(#clipPath1)" x2="94" y1="425"/>
      <line y2="456" fill="none" x1="93" clip-path="url(#clipPath1)" x2="93" y1="454"/>
      <line y2="455" fill="none" x1="92" clip-path="url(#clipPath1)" x2="94" y1="455"/>
      <line y2="486" fill="none" x1="93" clip-path="url(#clipPath1)" x2="93" y1="484"/>
      <line y2="485" fill="none" x1="92" clip-path="url(#clipPath1)" x2="94" y1="485"/>
      <line y2="-54" fill="none" x1="123" clip-path="url(#clipPath1)" x2="123" y1="-56"/>
      <line y2="-55" fill="none" x1="122" clip-path="url(#clipPath1)" x2="124" y1="-55"/>
      <line y2="-24" fill="none" x1="123" clip-path="url(#clipPath1)" x2="123" y1="-26"/>
      <line y2="-25" fill="none" x1="122" clip-path="url(#clipPath1)" x2="124" y1="-25"/>
      <line y2="6" fill="none" x1="123" clip-path="url(#clipPath1)" x2="123" y1="4"/>
      <line y2="5" fill="none" x1="122" clip-path="url(#clipPath1)" x2="124" y1="5"/>
      <line y2="36" fill="none" x1="123" clip-path="url(#clipPath1)" x2="123" y1="34"/>
      <line y2="35" fill="none" x1="122" clip-path="url(#clipPath1)" x2="124" y1="35"/>
      <line y2="66" fill="none" x1="123" clip-path="url(#clipPath1)" x2="123" y1="64"/>
      <line y2="65" fill="none" x1="122" clip-path="url(#clipPath1)" x2="124" y1="65"/>
      <line y2="96" fill="none" x1="123" clip-path="url(#clipPath1)" x2="123" y1="94"/>
      <line y2="95" fill="none" x1="122" clip-path="url(#clipPath1)" x2="124" y1="95"/>
      <line y2="126" fill="none" x1="123" clip-path="url(#clipPath1)" x2="123" y1="124"/>
      <line y2="125" fill="none" x1="122" clip-path="url(#clipPath1)" x2="124" y1="125"/>
      <line y2="156" fill="none" x1="123" clip-path="url(#clipPath1)" x2="123" y1="154"/>
      <line y2="155" fill="none" x1="122" clip-path="url(#clipPath1)" x2="124" y1="155"/>
      <line y2="186" fill="none" x1="123" clip-path="url(#clipPath1)" x2="123" y1="184"/>
      <line y2="185" fill="none" x1="122" clip-path="url(#clipPath1)" x2="124" y1="185"/>
      <line y2="216" fill="none" x1="123" clip-path="url(#clipPath1)" x2="123" y1="214"/>
      <line y2="215" fill="none" x1="122" clip-path="url(#clipPath1)" x2="124" y1="215"/>
      <line y2="246" fill="none" x1="123" clip-path="url(#clipPath1)" x2="123" y1="244"/>
      <line y2="245" fill="none" x1="122" clip-path="url(#clipPath1)" x2="124" y1="245"/>
      <line y2="276" fill="none" x1="123" clip-path="url(#clipPath1)" x2="123" y1="274"/>
      <line y2="275" fill="none" x1="122" clip-path="url(#clipPath1)" x2="124" y1="275"/>
      <line y2="306" fill="none" x1="123" clip-path="url(#clipPath1)" x2="123" y1="304"/>
      <line y2="305" fill="none" x1="122" clip-path="url(#clipPath1)" x2="124" y1="305"/>
      <line y2="336" fill="none" x1="123" clip-path="url(#clipPath1)" x2="123" y1="334"/>
      <line y2="335" fill="none" x1="122" clip-path="url(#clipPath1)" x2="124" y1="335"/>
      <line y2="366" fill="none" x1="123" clip-path="url(#clipPath1)" x2="123" y1="364"/>
      <line y2="365" fill="none" x1="122" clip-path="url(#clipPath1)" x2="124" y1="365"/>
      <line y2="396" fill="none" x1="123" clip-path="url(#clipPath1)" x2="123" y1="394"/>
      <line y2="395" fill="none" x1="122" clip-path="url(#clipPath1)" x2="124" y1="395"/>
      <line y2="426" fill="none" x1="123" clip-path="url(#clipPath1)" x2="123" y1="424"/>
      <line y2="425" fill="none" x1="122" clip-path="url(#clipPath1)" x2="124" y1="425"/>
      <line y2="456" fill="none" x1="123" clip-path="url(#clipPath1)" x2="123" y1="454"/>
      <line y2="455" fill="none" x1="122" clip-path="url(#clipPath1)" x2="124" y1="455"/>
      <line y2="486" fill="none" x1="123" clip-path="url(#clipPath1)" x2="123" y1="484"/>
      <line y2="485" fill="none" x1="122" clip-path="url(#clipPath1)" x2="124" y1="485"/>
      <line y2="-54" fill="none" x1="153" clip-path="url(#clipPath1)" x2="153" y1="-56"/>
      <line y2="-55" fill="none" x1="152" clip-path="url(#clipPath1)" x2="154" y1="-55"/>
      <line y2="-24" fill="none" x1="153" clip-path="url(#clipPath1)" x2="153" y1="-26"/>
      <line y2="-25" fill="none" x1="152" clip-path="url(#clipPath1)" x2="154" y1="-25"/>
      <line y2="6" fill="none" x1="153" clip-path="url(#clipPath1)" x2="153" y1="4"/>
      <line y2="5" fill="none" x1="152" clip-path="url(#clipPath1)" x2="154" y1="5"/>
      <line y2="36" fill="none" x1="153" clip-path="url(#clipPath1)" x2="153" y1="34"/>
      <line y2="35" fill="none" x1="152" clip-path="url(#clipPath1)" x2="154" y1="35"/>
      <line y2="66" fill="none" x1="153" clip-path="url(#clipPath1)" x2="153" y1="64"/>
      <line y2="65" fill="none" x1="152" clip-path="url(#clipPath1)" x2="154" y1="65"/>
      <line y2="96" fill="none" x1="153" clip-path="url(#clipPath1)" x2="153" y1="94"/>
      <line y2="95" fill="none" x1="152" clip-path="url(#clipPath1)" x2="154" y1="95"/>
      <line y2="126" fill="none" x1="153" clip-path="url(#clipPath1)" x2="153" y1="124"/>
      <line y2="125" fill="none" x1="152" clip-path="url(#clipPath1)" x2="154" y1="125"/>
      <line y2="156" fill="none" x1="153" clip-path="url(#clipPath1)" x2="153" y1="154"/>
      <line y2="155" fill="none" x1="152" clip-path="url(#clipPath1)" x2="154" y1="155"/>
      <line y2="186" fill="none" x1="153" clip-path="url(#clipPath1)" x2="153" y1="184"/>
      <line y2="185" fill="none" x1="152" clip-path="url(#clipPath1)" x2="154" y1="185"/>
      <line y2="216" fill="none" x1="153" clip-path="url(#clipPath1)" x2="153" y1="214"/>
      <line y2="215" fill="none" x1="152" clip-path="url(#clipPath1)" x2="154" y1="215"/>
      <line y2="246" fill="none" x1="153" clip-path="url(#clipPath1)" x2="153" y1="244"/>
      <line y2="245" fill="none" x1="152" clip-path="url(#clipPath1)" x2="154" y1="245"/>
      <line y2="276" fill="none" x1="153" clip-path="url(#clipPath1)" x2="153" y1="274"/>
      <line y2="275" fill="none" x1="152" clip-path="url(#clipPath1)" x2="154" y1="275"/>
      <line y2="306" fill="none" x1="153" clip-path="url(#clipPath1)" x2="153" y1="304"/>
      <line y2="305" fill="none" x1="152" clip-path="url(#clipPath1)" x2="154" y1="305"/>
      <line y2="336" fill="none" x1="153" clip-path="url(#clipPath1)" x2="153" y1="334"/>
      <line y2="335" fill="none" x1="152" clip-path="url(#clipPath1)" x2="154" y1="335"/>
      <line y2="366" fill="none" x1="153" clip-path="url(#clipPath1)" x2="153" y1="364"/>
      <line y2="365" fill="none" x1="152" clip-path="url(#clipPath1)" x2="154" y1="365"/>
      <line y2="396" fill="none" x1="153" clip-path="url(#clipPath1)" x2="153" y1="394"/>
      <line y2="395" fill="none" x1="152" clip-path="url(#clipPath1)" x2="154" y1="395"/>
      <line y2="426" fill="none" x1="153" clip-path="url(#clipPath1)" x2="153" y1="424"/>
      <line y2="425" fill="none" x1="152" clip-path="url(#clipPath1)" x2="154" y1="425"/>
      <line y2="456" fill="none" x1="153" clip-path="url(#clipPath1)" x2="153" y1="454"/>
      <line y2="455" fill="none" x1="152" clip-path="url(#clipPath1)" x2="154" y1="455"/>
      <line y2="486" fill="none" x1="153" clip-path="url(#clipPath1)" x2="153" y1="484"/>
      <line y2="485" fill="none" x1="152" clip-path="url(#clipPath1)" x2="154" y1="485"/>
      <line y2="-54" fill="none" x1="183" clip-path="url(#clipPath1)" x2="183" y1="-56"/>
      <line y2="-55" fill="none" x1="182" clip-path="url(#clipPath1)" x2="184" y1="-55"/>
      <line y2="-24" fill="none" x1="183" clip-path="url(#clipPath1)" x2="183" y1="-26"/>
      <line y2="-25" fill="none" x1="182" clip-path="url(#clipPath1)" x2="184" y1="-25"/>
      <line y2="6" fill="none" x1="183" clip-path="url(#clipPath1)" x2="183" y1="4"/>
      <line y2="5" fill="none" x1="182" clip-path="url(#clipPath1)" x2="184" y1="5"/>
      <line y2="36" fill="none" x1="183" clip-path="url(#clipPath1)" x2="183" y1="34"/>
      <line y2="35" fill="none" x1="182" clip-path="url(#clipPath1)" x2="184" y1="35"/>
      <line y2="66" fill="none" x1="183" clip-path="url(#clipPath1)" x2="183" y1="64"/>
      <line y2="65" fill="none" x1="182" clip-path="url(#clipPath1)" x2="184" y1="65"/>
      <line y2="96" fill="none" x1="183" clip-path="url(#clipPath1)" x2="183" y1="94"/>
      <line y2="95" fill="none" x1="182" clip-path="url(#clipPath1)" x2="184" y1="95"/>
      <line y2="126" fill="none" x1="183" clip-path="url(#clipPath1)" x2="183" y1="124"/>
      <line y2="125" fill="none" x1="182" clip-path="url(#clipPath1)" x2="184" y1="125"/>
      <line y2="156" fill="none" x1="183" clip-path="url(#clipPath1)" x2="183" y1="154"/>
      <line y2="155" fill="none" x1="182" clip-path="url(#clipPath1)" x2="184" y1="155"/>
      <line y2="186" fill="none" x1="183" clip-path="url(#clipPath1)" x2="183" y1="184"/>
      <line y2="185" fill="none" x1="182" clip-path="url(#clipPath1)" x2="184" y1="185"/>
      <line y2="216" fill="none" x1="183" clip-path="url(#clipPath1)" x2="183" y1="214"/>
      <line y2="215" fill="none" x1="182" clip-path="url(#clipPath1)" x2="184" y1="215"/>
      <line y2="246" fill="none" x1="183" clip-path="url(#clipPath1)" x2="183" y1="244"/>
      <line y2="245" fill="none" x1="182" clip-path="url(#clipPath1)" x2="184" y1="245"/>
      <line y2="276" fill="none" x1="183" clip-path="url(#clipPath1)" x2="183" y1="274"/>
      <line y2="275" fill="none" x1="182" clip-path="url(#clipPath1)" x2="184" y1="275"/>
      <line y2="306" fill="none" x1="183" clip-path="url(#clipPath1)" x2="183" y1="304"/>
      <line y2="305" fill="none" x1="182" clip-path="url(#clipPath1)" x2="184" y1="305"/>
      <line y2="336" fill="none" x1="183" clip-path="url(#clipPath1)" x2="183" y1="334"/>
      <line y2="335" fill="none" x1="182" clip-path="url(#clipPath1)" x2="184" y1="335"/>
      <line y2="366" fill="none" x1="183" clip-path="url(#clipPath1)" x2="183" y1="364"/>
      <line y2="365" fill="none" x1="182" clip-path="url(#clipPath1)" x2="184" y1="365"/>
      <line y2="396" fill="none" x1="183" clip-path="url(#clipPath1)" x2="183" y1="394"/>
      <line y2="395" fill="none" x1="182" clip-path="url(#clipPath1)" x2="184" y1="395"/>
      <line y2="426" fill="none" x1="183" clip-path="url(#clipPath1)" x2="183" y1="424"/>
      <line y2="425" fill="none" x1="182" clip-path="url(#clipPath1)" x2="184" y1="425"/>
      <line y2="456" fill="none" x1="183" clip-path="url(#clipPath1)" x2="183" y1="454"/>
      <line y2="455" fill="none" x1="182" clip-path="url(#clipPath1)" x2="184" y1="455"/>
      <line y2="486" fill="none" x1="183" clip-path="url(#clipPath1)" x2="183" y1="484"/>
      <line y2="485" fill="none" x1="182" clip-path="url(#clipPath1)" x2="184" y1="485"/>
      <line y2="-54" fill="none" x1="213" clip-path="url(#clipPath1)" x2="213" y1="-56"/>
      <line y2="-55" fill="none" x1="212" clip-path="url(#clipPath1)" x2="214" y1="-55"/>
      <line y2="-24" fill="none" x1="213" clip-path="url(#clipPath1)" x2="213" y1="-26"/>
      <line y2="-25" fill="none" x1="212" clip-path="url(#clipPath1)" x2="214" y1="-25"/>
      <line y2="6" fill="none" x1="213" clip-path="url(#clipPath1)" x2="213" y1="4"/>
      <line y2="5" fill="none" x1="212" clip-path="url(#clipPath1)" x2="214" y1="5"/>
      <line y2="36" fill="none" x1="213" clip-path="url(#clipPath1)" x2="213" y1="34"/>
      <line y2="35" fill="none" x1="212" clip-path="url(#clipPath1)" x2="214" y1="35"/>
      <line y2="66" fill="none" x1="213" clip-path="url(#clipPath1)" x2="213" y1="64"/>
      <line y2="65" fill="none" x1="212" clip-path="url(#clipPath1)" x2="214" y1="65"/>
      <line y2="96" fill="none" x1="213" clip-path="url(#clipPath1)" x2="213" y1="94"/>
      <line y2="95" fill="none" x1="212" clip-path="url(#clipPath1)" x2="214" y1="95"/>
      <line y2="126" fill="none" x1="213" clip-path="url(#clipPath1)" x2="213" y1="124"/>
      <line y2="125" fill="none" x1="212" clip-path="url(#clipPath1)" x2="214" y1="125"/>
      <line y2="156" fill="none" x1="213" clip-path="url(#clipPath1)" x2="213" y1="154"/>
      <line y2="155" fill="none" x1="212" clip-path="url(#clipPath1)" x2="214" y1="155"/>
      <line y2="186" fill="none" x1="213" clip-path="url(#clipPath1)" x2="213" y1="184"/>
      <line y2="185" fill="none" x1="212" clip-path="url(#clipPath1)" x2="214" y1="185"/>
      <line y2="216" fill="none" x1="213" clip-path="url(#clipPath1)" x2="213" y1="214"/>
      <line y2="215" fill="none" x1="212" clip-path="url(#clipPath1)" x2="214" y1="215"/>
      <line y2="246" fill="none" x1="213" clip-path="url(#clipPath1)" x2="213" y1="244"/>
      <line y2="245" fill="none" x1="212" clip-path="url(#clipPath1)" x2="214" y1="245"/>
      <line y2="276" fill="none" x1="213" clip-path="url(#clipPath1)" x2="213" y1="274"/>
      <line y2="275" fill="none" x1="212" clip-path="url(#clipPath1)" x2="214" y1="275"/>
      <line y2="306" fill="none" x1="213" clip-path="url(#clipPath1)" x2="213" y1="304"/>
      <line y2="305" fill="none" x1="212" clip-path="url(#clipPath1)" x2="214" y1="305"/>
      <line y2="336" fill="none" x1="213" clip-path="url(#clipPath1)" x2="213" y1="334"/>
      <line y2="335" fill="none" x1="212" clip-path="url(#clipPath1)" x2="214" y1="335"/>
      <line y2="366" fill="none" x1="213" clip-path="url(#clipPath1)" x2="213" y1="364"/>
      <line y2="365" fill="none" x1="212" clip-path="url(#clipPath1)" x2="214" y1="365"/>
      <line y2="396" fill="none" x1="213" clip-path="url(#clipPath1)" x2="213" y1="394"/>
      <line y2="395" fill="none" x1="212" clip-path="url(#clipPath1)" x2="214" y1="395"/>
      <line y2="426" fill="none" x1="213" clip-path="url(#clipPath1)" x2="213" y1="424"/>
      <line y2="425" fill="none" x1="212" clip-path="url(#clipPath1)" x2="214" y1="425"/>
      <line y2="456" fill="none" x1="213" clip-path="url(#clipPath1)" x2="213" y1="454"/>
      <line y2="455" fill="none" x1="212" clip-path="url(#clipPath1)" x2="214" y1="455"/>
      <line y2="486" fill="none" x1="213" clip-path="url(#clipPath1)" x2="213" y1="484"/>
      <line y2="485" fill="none" x1="212" clip-path="url(#clipPath1)" x2="214" y1="485"/>
    </g>
    <g fill="url(#linearGradient1)" text-rendering="geometricPrecision" shape-rendering="geometricPrecision" transform="matrix(1,0,0,1,573,305)" stroke="url(#linearGradient1)">
      <ellipse rx="61.8104" ry="20" clip-path="url(#clipPath2)" cx="-491.112" cy="-270" stroke="none"/>
    </g>
    <g text-rendering="geometricPrecision" stroke-miterlimit="1.45" shape-rendering="geometricPrecision" transform="matrix(1,0,0,1,573,305)" stroke-linecap="butt">
      <ellipse rx="61.8104" fill="none" ry="20" clip-path="url(#clipPath2)" cx="-491.112" cy="-270"/>
      <text x="-513.1862" xml:space="preserve" y="-265.344" clip-path="url(#clipPath2)" font-family="sans-serif" stroke="none">bootup </text>
    </g>
    <g fill="url(#linearGradient2)" text-rendering="geometricPrecision" shape-rendering="geometricPrecision" transform="matrix(1,0,0,1,573,305)" stroke="url(#linearGradient2)">
      <path d="M-552.9224 -196.7324 L-429.3016 -196.7324 L-429.3016 -156.7324 L-552.9224 -156.7324 Z" stroke="none" clip-path="url(#clipPath2)"/>
    </g>
    <g text-rendering="geometricPrecision" stroke-miterlimit="1.45" shape-rendering="geometricPrecision" transform="matrix(1,0,0,1,573,305)" stroke-linecap="butt">
      <path fill="none" d="M-552.9224 -196.7324 L-429.3016 -196.7324 L-429.3016 -156.7324 L-552.9224 -156.7324 Z" clip-path="url(#clipPath2)"/>
      <text x="-539.0464" xml:space="preserve" y="-172.0764" clip-path="url(#clipPath2)" font-family="sans-serif" stroke="none">wait for network </text>
    </g>
    <g fill="url(#linearGradient3)" text-rendering="geometricPrecision" shape-rendering="geometricPrecision" transform="matrix(1,0,0,1,573,305)" stroke="url(#linearGradient3)">
      <path d="M-491.112 -108.4648 L-425 -75.4088 L-491.112 -42.3528 L-557.224 -75.4088 Z" stroke="none" clip-path="url(#clipPath2)"/>
    </g>
    <g text-rendering="geometricPrecision" stroke-miterlimit="1.45" shape-rendering="geometricPrecision" transform="matrix(1,0,0,1,573,305)" stroke-linecap="butt">
      <path fill="none" d="M-491.112 -108.4648 L-425 -75.4088 L-491.112 -42.3528 L-557.224 -75.4088 Z" clip-path="url(#clipPath2)"/>
      <text x="-515.2502" xml:space="preserve" y="-78.9249" clip-path="url(#clipPath2)" font-family="sans-serif" stroke="none">Network</text>
      <text x="-518.5802" xml:space="preserve" y="-62.5808" clip-path="url(#clipPath2)" font-family="sans-serif" stroke="none">available?</text>
    </g>
    <g fill="url(#linearGradient4)" text-rendering="geometricPrecision" shape-rendering="geometricPrecision" transform="matrix(1,0,0,1,573,305)" stroke="url(#linearGradient4)">
      <rect x="-557.224" width="132.224" height="40" y="5.9147" clip-path="url(#clipPath2)" stroke="none"/>
    </g>
    <g text-rendering="geometricPrecision" stroke-miterlimit="1.45" shape-rendering="geometricPrecision" transform="matrix(1,0,0,1,573,305)" stroke-linecap="butt">
      <rect fill="none" x="-557.224" width="132.224" height="40" y="5.9147" clip-path="url(#clipPath2)"/>
      <path fill="none" d="M-547.224 5.9147 L-547.224 45.9147 M-435 5.9147 L-435 45.9147 M-547.224 5.9147 Z" clip-path="url(#clipPath2)"/>
      <text x="-521.6042" xml:space="preserve" y="30.5708" clip-path="url(#clipPath2)" font-family="sans-serif" stroke="none">Run YAPPS</text>
    </g>
    <g fill="url(#linearGradient5)" text-rendering="geometricPrecision" shape-rendering="geometricPrecision" transform="matrix(1,0,0,1,573,305)" stroke="url(#linearGradient5)">
      <rect x="-557.224" y="94.1823" clip-path="url(#clipPath2)" width="132.224" rx="20" ry="20" height="40" stroke="none"/>
    </g>
    <g text-rendering="geometricPrecision" stroke-miterlimit="1.45" shape-rendering="geometricPrecision" transform="matrix(1,0,0,1,573,305)" stroke-linecap="butt">
      <rect x="-557.224" y="94.1823" clip-path="url(#clipPath2)" fill="none" width="132.224" rx="20" ry="20" height="40"/>
      <text x="-511.3441" xml:space="preserve" y="118.8383" clip-path="url(#clipPath2)" font-family="sans-serif" stroke="none">Reboot</text>
    </g>
    <g text-rendering="geometricPrecision" stroke-miterlimit="1.45" shape-rendering="geometricPrecision" transform="matrix(1,0,0,1,573,305)" stroke-linecap="butt">
      <path fill="none" d="M-491.112 -250.0076 L-491.112 -204.7328" clip-path="url(#clipPath2)"/>
    </g>
    <g text-rendering="geometricPrecision" stroke-miterlimit="1.45" shape-rendering="geometricPrecision" transform="matrix(1,0,0,1,573,305)" stroke-linecap="butt">
      <path d="M-491.112 -196.7328 L-486.112 -208.7328 L-491.112 -205.7328 L-496.112 -208.7328 Z" stroke="none" clip-path="url(#clipPath2)"/>
      <path fill="none" d="M-491.112 -156.6953 L-491.112 -116.4712" clip-path="url(#clipPath2)"/>
      <path d="M-491.112 -108.4712 L-486.112 -120.4712 L-491.112 -117.4712 L-496.112 -120.4712 Z" clip-path="url(#clipPath2)" stroke="none"/>
      <path fill="none" d="M-425.0201 -75.4088 L-401.768 -75.4088 L-401.768 -176.7324 L-421.2954 -176.7324" clip-path="url(#clipPath2)"/>
      <path d="M-429.2954 -176.7324 L-417.2954 -171.7324 L-420.2954 -176.7324 L-417.2954 -181.7324 Z" clip-path="url(#clipPath2)" stroke="none"/>
      <text x="-415.7661" xml:space="preserve" y="-40.7528" clip-path="url(#clipPath2)" font-family="sans-serif" stroke="none">No</text>
      <path fill="none" d="M-491.112 -42.3105 L-491.112 -2.1064" clip-path="url(#clipPath2)"/>
      <path d="M-491.112 5.8936 L-486.112 -6.1064 L-491.112 -3.1064 L-496.112 -6.1064 Z" clip-path="url(#clipPath2)" stroke="none"/>
      <text x="-530.7661" xml:space="preserve" y="-13.563" clip-path="url(#clipPath2)" font-family="sans-serif" stroke="none">Yes</text>
      <path fill="none" d="M-491.112 45.956 L-491.112 86.1608" clip-path="url(#clipPath2)"/>
      <path d="M-491.112 94.1608 L-486.112 82.1608 L-491.112 85.1608 L-496.112 82.1608 Z" clip-path="url(#clipPath2)" stroke="none"/>
    </g>
  </g>
</svg>
